<?xml version="1.0" encoding="UTF-8" standalone="no"?>
<!-- Created with Inkscape (http://www.inkscape.org/) -->

<svg
   width="210mm"
   height="297mm"
   viewBox="0 0 210 297"
   version="1.1"
   id="svg5"
   inkscape:version="1.1.2 (b8e25be833, 2022-02-05)"
   sodipodi:docname="drawing.svg"
   xmlns:inkscape="http://www.inkscape.org/namespaces/inkscape"
   xmlns:sodipodi="http://sodipodi.sourceforge.net/DTD/sodipodi-0.dtd"
   xmlns="http://www.w3.org/2000/svg"
   xmlns:svg="http://www.w3.org/2000/svg">
  <sodipodi:namedview
     id="namedview7"
     pagecolor="#ffffff"
     bordercolor="#666666"
     borderopacity="1.0"
     inkscape:pageshadow="2"
     inkscape:pageopacity="0.0"
     inkscape:pagecheckerboard="0"
     inkscape:document-units="mm"
     showgrid="false"
     showguides="false"
     inkscape:zoom="0.32693273"
     inkscape:cx="241.63993"
     inkscape:cy="568.92439"
     inkscape:window-width="1366"
     inkscape:window-height="705"
     inkscape:window-x="-8"
     inkscape:window-y="-8"
     inkscape:window-maximized="1"
     inkscape:current-layer="layer1" />
  <defs
     id="defs2" />
  <g
     inkscape:label="Layer 1"
     inkscape:groupmode="layer"
     id="layer1">
    <g
       id="g1328"
       transform="matrix(12.799999,0,0,12.799999,-1137.3752,-1043.7073)"
       style="stroke-width:0.078125">
      <rect
         style="fill:#464646;fill-opacity:1;stroke-width:0.0413281"
         id="rect1080"
         width="5.291667"
         height="5.291666"
         x="95.698769"
         y="88.914864" />
      <path
         id="path15447"
         d="m 98.741474,89.444029 c -0.944087,0 -1.719792,0.77571 -1.719792,1.719791 0,0.377293 0.125333,0.726562 0.334354,1.011309 l -1.050581,1.050581 a 0.26460979,0.26460979 0 1 0 0.374121,0.374137 l 1.050581,-1.050581 c 0.284744,0.209015 0.634021,0.334346 1.011317,0.334346 0.944086,0 1.719796,-0.775711 1.719796,-1.719792 0,-0.944081 -0.77571,-1.719791 -1.719796,-1.719791 z m 0,0.793749 c 0.01349,0 0.02593,0.0036 0.03926,0.0041 a 0.13230489,0.13230489 0 0 1 0.09303,0.128164 V 91.0315 h 0.661459 a 0.13230489,0.13230489 0 0 1 0.128666,0.09457 0.13230489,0.13230489 0 0 1 0,5.29e-4 c 0,0.01262 0.0037,0.02447 0.0037,0.03721 0,0.01291 -0.0032,0.02492 -0.0037,0.03772 a 0.13230489,0.13230489 0 0 1 -0.128666,0.09456 h -0.661459 v 0.661458 a 0.13230489,0.13230489 0 0 1 -0.09456,0.128675 c -0.0127,5.29e-4 -0.02434,0.0036 -0.0372,0.0036 -0.01296,0 -0.02487,-0.0031 -0.03773,-0.0036 a 0.13230489,0.13230489 0 0 1 -0.09509,-0.128675 v -0.661458 h -0.661458 a 0.13230489,0.13230489 0 0 1 -0.128667,-0.09457 0.13230489,0.13230489 0 0 1 0,-5.29e-4 c 0,-0.01259 -0.0037,-0.02447 -0.0037,-0.03721 0,-0.01291 0.0032,-0.02492 0.0037,-0.03772 a 0.13230489,0.13230489 0 0 1 0.128667,-0.09456 h 0.661458 v -0.66143 a 0.13230489,0.13230489 0 0 1 0.09303,-0.128159 c 0.01323,-5.29e-4 0.02593,-0.0041 0.03927,-0.0041 z"
         style="color:#000000;font-style:normal;font-variant:normal;font-weight:normal;font-stretch:normal;font-size:medium;line-height:normal;font-family:sans-serif;font-variant-ligatures:normal;font-variant-position:normal;font-variant-caps:normal;font-variant-numeric:normal;font-variant-alternates:normal;font-feature-settings:normal;text-indent:0;text-align:start;text-decoration:none;text-decoration-line:none;text-decoration-style:solid;text-decoration-color:#000000;letter-spacing:normal;word-spacing:normal;text-transform:none;writing-mode:lr-tb;direction:ltr;text-orientation:mixed;dominant-baseline:auto;baseline-shift:baseline;text-anchor:start;white-space:normal;shape-padding:0;clip-rule:nonzero;display:inline;overflow:visible;visibility:visible;isolation:auto;mix-blend-mode:normal;color-interpolation:sRGB;color-interpolation-filters:linearRGB;solid-color:#000000;solid-opacity:1;vector-effect:none;fill:#ffffff;fill-opacity:1;fill-rule:nonzero;stroke:none;stroke-width:0.0206705;stroke-linecap:round;stroke-linejoin:round;stroke-miterlimit:7.17647;stroke-dasharray:none;stroke-dashoffset:0;stroke-opacity:1;color-rendering:auto;image-rendering:auto;shape-rendering:auto;text-rendering:auto;enable-background:accumulate"
         inkscape:connector-curvature="0" />
    </g>
    <g
       id="g1324"
       transform="matrix(12.799999,0,0,12.799999,-1139.2801,-1043.7072)"
       style="stroke-width:0.078125">
      <rect
         style="fill:#464646;fill-opacity:1;stroke-width:0.0413281"
         id="rect998"
         width="5.291667"
         height="5.291666"
         x="90.142509"
         y="88.914856" />
      <path
         sodipodi:nodetypes="cccccccccccccccscccccccccccccc"
         inkscape:connector-curvature="0"
         id="path22769"
         d="m 93.048799,89.440412 c -0.145923,0.0024 -0.262448,0.122274 -0.26045,0.2682 v 1.852083 h -0.291455 l -0.240813,-1.626256 c -0.01701,-0.127659 -0.123484,-0.224523 -0.25218,-0.229444 -0.166907,-0.0061 -0.297624,0.14211 -0.270785,0.306956 l 0.261483,1.764752 v 0.234609 0.343133 h -0.264584 v -0.461986 l -0.685228,-0.30851 c -0.03221,-0.0145 -0.067,-0.02241 -0.10232,-0.02326 -0.234021,-0.0052 -0.359047,0.27368 -0.199472,0.444934 l 0.926042,0.992188 c 0.383762,0.411173 0.89644,0.699336 1.355473,0.675928 0.582682,-0.04248 1.083472,-0.429313 1.271757,-0.982368 L 94.89313,91.03256 c 0.04784,-0.127217 -0.04348,-0.263792 -0.179319,-0.268203 -0.08695,-0.0027 -0.165504,0.05158 -0.193786,0.133843 l -0.238228,0.662495 h -0.195852 l 0.285252,-1.539441 c 0.03332,-0.166994 -0.09748,-0.321529 -0.267684,-0.316259 -0.125693,0.0041 -0.231114,0.09616 -0.25218,0.220141 l -0.302823,1.635559 h -0.230995 v -1.852083 c 0.0021,-0.149164 -0.119562,-0.270529 -0.268716,-0.2682 z"
         style="display:inline;vector-effect:none;fill:#ffffff;fill-opacity:1;stroke:none;stroke-width:0.0206705;stroke-linecap:round;stroke-linejoin:round;stroke-miterlimit:4;stroke-dasharray:none;stroke-dashoffset:0;stroke-opacity:1;marker:none;paint-order:fill markers stroke;enable-background:new" />
    </g>
  </g>
</svg>
